PathFileType	4	(X/Y/Z)	C:/Users/opensim2020/Desktop/walking_exp_matlab/subject01_walking10_straight_01.trc	
DataRate	CameraRate	NumFrames	NumMarkers	Units	OrigDataRate	OrigDataStartFrame	OrigNumFrames	
100.00	100.00	7	43	mm	100.00	1009	349	
Frame#	Time	LFHD			RFHD			LBHD			RBHD			C7			T10			CLAV			STRN			RBAK			LSHO			LUPA			LELB			LFRM			LWRA			LWRB			LFIN			RSHO			RUPA			RELB			RFRM			RWRA			RWRB			RFIN			LASI			RASI			LPSI			RPSI			LTHI			LKNE			LTIB			LANK			LHEE			LTOE			RTHI			RKNE			RTIB			RANK			RHEE			RTOE			*39			*40			*41			*42			
		X1	Y1	Z1	X2	Y2	Z2	X3	Y3	Z3	X4	Y4	Z4	X5	Y5	Z5	X6	Y6	Z6	X7	Y7	Z7	X8	Y8	Z8	X9	Y9	Z9	X10	Y10	Z10	X11	Y11	Z11	X12	Y12	Z12	X13	Y13	Z13	X14	Y14	Z14	X15	Y15	Z15	X16	Y16	Z16	X17	Y17	Z17	X18	Y18	Z18	X19	Y19	Z19	X20	Y20	Z20	X21	Y21	Z21	X22	Y22	Z22	X23	Y23	Z23	X24	Y24	Z24	X25	Y25	Z25	X26	Y26	Z26	X27	Y27	Z27	X28	Y28	Z28	X29	Y29	Z29	X30	Y30	Z30	X31	Y31	Z31	X32	Y32	Z32	X33	Y33	Z33	X34	Y34	Z34	X35	Y35	Z35	X36	Y36	Z36	X37	Y37	Z37	X38	Y38	Z38	X39	Y39	Z39	X40	Y40	Z40	X41	Y41	Z41	X42	Y42	Z42	X43	Y43	Z43	

88	0.870	1384.98242	-597.08923	1667.42590	1496.22510	-574.40070	1676.17957	1402.70630	-696.19769	1593.42554	1521.12561	-674.56183	1600.88733	1431.54565	-699.70453	1421.33337	1437.61475	-733.37677	1128.11670	1434.55151	-556.59906	1354.13367	1427.40649	-514.47052	1197.33374	1502.29590	-755.13245	1225.76196	1273.93640	-610.15704	1385.75647	1183.58228	-610.14740	1204.72034	1178.04626	-588.50305	1053.50977	1166.72009	-512.14380	963.90887	1203.08264	-404.14224	884.49951	1173.57703	-448.97467	859.55280	1173.18140	-379.05859	812.43787	1585.41101	-622.66949	1378.85010	1675.65991	-690.24847	1176.40674	1673.53357	-692.61859	1052.29578	1703.37756	-672.26758	933.72192	1690.12341	-594.85657	813.79718	1724.86353	-642.32336	816.60498	1724.28369	-610.05902	736.52484	1323.86230	-565.91321	918.25879	1540.15588	-547.02985	929.75269	1395.53247	-747.90601	932.58423	1540.57483	-732.72021	935.23486	1284.64258	-649.80511	588.27155	1302.83533	-685.36475	456.04929	1296.11304	-785.49036	294.39722	1352.72437	-876.70886	94.99028	1404.41040	-928.95105	79.06397	1350.96021	-743.28326	28.78223	1603.36682	-540.09790	600.70648	1574.07129	-491.32471	453.29410	1580.67554	-503.13419	278.33746	1535.09985	-474.21057	73.14705	1483.18616	-514.17371	29.32108	1536.90417	-330.05902	51.82009	1476.12891	-597.12878	1705.32605	-3101.99316	1973.06067	1023.93390	-3140.77954	2012.49695	1021.88629			 
89	0.880	1386.55188	-590.86194	1667.85461	1497.79346	-568.16046	1676.63708	1404.39417	-689.96533	1593.74414	1522.76624	-668.29413	1601.31641	1433.31335	-693.14709	1421.39050	1439.28052	-725.93762	1128.04211	1436.37500	-550.03687	1354.49939	1429.25012	-507.37381	1197.88501	1503.93286	-748.23035	1225.50891	1275.64807	-603.82794	1385.79297	1185.46118	-603.81110	1204.56628	1179.99475	-582.48669	1053.19910	1168.34424	-506.33853	963.48163	1204.47473	-398.48358	883.87982	1174.73486	-443.05890	859.09430	1174.45996	-373.36392	812.04327	1587.31262	-616.24768	1378.84570	1677.29431	-683.60291	1176.15027	1675.24060	-685.70837	1052.07434	1704.86658	-665.14844	933.42731	1691.46204	-587.50024	813.64783	1726.25146	-635.11127	816.25366	1725.60034	-602.74036	736.41827	1325.38916	-557.55603	918.32123	1541.43958	-539.27246	929.64246	1396.81909	-740.01129	932.41162	1541.98157	-724.94012	935.13141	1285.69202	-642.70911	588.45093	1303.70264	-679.10889	456.43488	1296.67480	-781.58459	296.30750	1352.27173	-875.00208	97.85456	1403.81055	-927.64453	82.75079	1350.84973	-742.96533	28.77199	1606.16467	-530.54987	602.90076	1574.68347	-484.49930	453.40573	1581.11096	-498.39536	278.27264	1535.41443	-472.13144	72.96680	1483.84656	-512.94629	30.72748	1537.79883	-328.59027	48.85244	1477.73328	-590.92804	1705.76038	-3101.82300	1973.18958	1023.49335	-3140.73022	2012.52563	1022.01086			 
90	0.890	1388.16382	-584.34644	1668.47461	1499.37378	-561.85150	1677.20325	1406.08167	-683.86041	1594.34033	1524.48181	-661.99677	1601.90381	1435.11389	-686.65082	1421.59814	1440.92078	-718.38922	1128.03271	1438.21973	-543.48956	1355.08203	1431.09802	-500.27560	1198.65466	1505.64307	-741.30316	1225.45068	1277.41907	-597.31763	1386.19250	1187.58191	-597.45953	1204.57849	1181.94385	-576.60889	1053.17773	1170.11829	-500.62384	963.25208	1205.72473	-392.75360	883.53552	1176.30701	-437.65146	858.68878	1175.65503	-368.17426	811.61285	1589.19263	-609.72870	1379.07544	1679.00952	-676.85876	1176.09741	1676.84851	-678.60327	1051.92834	1706.44983	-657.89197	933.34613	1692.78174	-580.13281	813.67712	1727.61047	-627.59479	816.13806	1726.94690	-595.14343	736.46350	1326.76599	-549.57440	918.44794	1542.84399	-531.42694	929.80994	1397.93884	-732.13971	932.46545	1543.17981	-717.28217	935.53748	1286.88354	-635.23871	588.77618	1304.52185	-672.27411	456.88385	1296.95435	-776.83197	298.12332	1351.63354	-872.94617	100.57112	1403.19873	-926.03699	86.80275	1350.83630	-742.75330	28.82556	1607.05151	-523.34778	603.39771	1575.67151	-478.18796	453.49423	1582.21741	-493.38217	278.37506	1536.11694	-470.16501	72.81525	1484.14172	-512.05493	31.32612	1538.30908	-327.27823	45.58501	1479.21289	-584.76892	1706.25647	-3101.93091	1973.23584	1023.53094	-3140.67554	2012.64868	1022.17145			 
91	0.900	1389.72571	-578.15735	1668.99097	1500.99463	-555.44580	1677.84363	1407.93762	-677.47205	1594.94141	1526.29102	-655.62164	1602.69556	1436.91541	-680.23907	1421.96252	1442.62891	-710.94037	1128.17395	1440.06201	-536.94830	1355.78333	1432.91528	-493.14059	1199.58862	1507.38196	-734.42273	1225.51477	1279.15857	-590.83435	1386.66870	1189.69263	-591.17169	1204.85754	1184.05579	-570.75006	1053.32544	1171.92725	-495.24054	963.15228	1207.10339	-387.76602	882.85895	1178.17725	-432.86285	858.34052	1176.85510	-363.35233	811.06976	1591.02087	-603.29425	1379.37170	1680.79004	-670.04156	1176.20642	1678.45764	-671.43427	1051.97571	1708.00586	-650.52405	933.41077	1694.15222	-572.68396	813.95782	1729.01599	-620.17664	816.23151	1728.34387	-587.45770	736.68408	1328.36609	-541.21082	918.87250	1544.36609	-523.64154	930.19080	1398.94397	-724.16052	932.79523	1544.12866	-709.77490	936.23773	1288.10681	-627.25562	589.14490	1305.34705	-664.74402	457.38437	1297.19873	-771.57764	300.10275	1351.04614	-870.58936	103.94134	1402.37854	-924.03906	91.04135	1350.83105	-742.43848	28.89956	1608.00903	-515.60999	603.82306	1577.17114	-472.25781	453.68182	1583.85278	-488.57852	278.41226	1536.57703	-468.55066	72.49395	1484.90930	-511.12503	31.93652	1538.30359	-325.85019	43.01332	1480.88477	-578.20862	1707.02710	-3101.80859	1973.21545	1023.57489	-3140.73462	2012.50232	1021.97900			 
92	0.910	1391.40906	-571.73938	1669.67896	1502.60840	-549.00311	1678.57727	1409.80591	-671.24054	1595.77026	1528.09229	-649.22760	1603.55090	1438.60217	-673.83777	1422.30896	1444.32068	-703.41882	1128.33252	1441.93005	-530.38080	1356.63794	1434.74280	-485.91199	1200.67700	1509.07617	-727.48138	1225.65613	1280.92114	-584.30194	1387.25354	1191.89307	-584.86475	1205.29797	1186.11841	-564.98676	1053.62134	1173.80273	-490.00928	963.23938	1208.20691	-382.84735	882.18555	1179.80920	-428.18887	858.06799	1178.04016	-358.83923	810.65369	1592.83093	-596.94147	1379.89404	1682.54126	-663.09692	1176.41663	1680.19397	-664.21240	1052.27881	1709.58386	-643.02142	933.73950	1695.56860	-565.07654	814.33826	1730.48047	-612.33118	816.61774	1729.78357	-579.70166	737.08685	1329.86890	-533.30591	919.08765	1546.03113	-515.91833	930.70441	1399.78516	-716.06750	933.37128	1545.03088	-702.20642	937.26001	1289.37573	-618.99017	589.57196	1306.10315	-656.74463	457.91406	1297.37891	-765.75549	302.09210	1350.36963	-868.07880	107.40872	1401.62476	-921.73151	95.62218	1350.81824	-742.17365	28.95898	1609.03674	-507.98956	604.18994	1578.53699	-466.84079	453.49930	1585.26929	-484.16367	278.03812	1536.67773	-467.17856	72.40678	1485.36108	-510.48340	32.38646	1537.57532	-324.79340	41.06572	1482.49316	-571.73242	1707.74133	-3101.97998	1973.15381	1023.35321	-3140.63940	2012.50195	1021.97272			 
93	0.920	1393.15698	-565.74524	1670.25305	1504.28638	-542.50598	1679.37402	1411.59558	-665.10425	1596.75488	1529.90710	-642.81860	1604.54395	1440.29431	-667.49628	1422.58362	1445.93457	-695.84448	1128.56433	1443.80225	-523.80743	1357.55664	1436.70386	-478.54044	1201.87500	1510.72290	-720.39563	1225.76868	1282.77576	-577.79492	1387.97485	1194.12109	-578.64429	1205.75537	1188.10583	-559.51892	1054.15820	1175.69531	-484.90302	963.37317	1209.96448	-377.97165	881.92535	1181.46875	-423.79068	857.82654	1179.24329	-354.68280	810.12396	1594.64160	-590.66406	1380.57141	1684.34485	-656.13293	1176.80823	1682.03247	-656.90057	1052.74768	1711.20996	-635.48083	934.26221	1696.97571	-557.40662	814.93707	1732.06482	-604.56787	817.24207	1731.25037	-571.79669	737.66083	1331.65808	-524.89130	919.74158	1547.88672	-508.24515	931.25610	1400.58875	-707.83588	934.22638	1545.87488	-694.63190	938.30823	1290.61816	-610.17126	590.02094	1306.74707	-648.10504	458.41190	1297.48889	-759.51221	304.32047	1349.58032	-865.25989	111.18168	1400.80493	-919.02783	100.72806	1350.79993	-741.78802	29.10881	1610.25000	-500.80148	604.52814	1579.54102	-461.60864	453.00961	1586.36023	-480.35089	277.57571	1536.50891	-465.83563	72.26398	1485.75745	-510.91263	33.14316	1536.42712	-323.59338	39.38790	1484.13000	-565.26831	1708.46985	-3102.05762	1972.91248	1023.81940	-3140.64868	2012.56274	1022.09985			 
94	0.930	1394.75354	-559.01538	1671.17590	1505.92444	-535.95178	1680.12463	1413.45300	-658.83551	1597.80774	1531.71753	-636.43744	1605.63770	1442.13806	-661.30939	1423.03833	1447.48987	-688.40985	1128.99524	1445.74707	-517.18921	1358.58850	1438.56445	-471.33945	1203.11877	1512.39954	-713.34137	1226.00232	1284.63757	-571.33032	1388.82861	1196.21448	-572.39862	1206.50183	1190.28198	-554.05347	1054.84924	1177.55969	-480.06903	963.59210	1211.30493	-373.76303	881.38416	1183.05652	-419.83246	857.69849	1180.75415	-350.51083	809.45361	1596.57349	-584.42908	1381.40894	1686.13757	-649.14331	1177.32104	1683.78723	-649.44293	1053.31958	1712.87366	-627.76538	934.90887	1698.40601	-549.64386	815.67218	1733.72668	-596.84613	817.83173	1732.77209	-563.84283	738.42450	1333.45667	-516.89362	920.29309	1549.80969	-500.71585	931.71698	1401.49353	-699.64343	935.27130	1546.83386	-687.02405	939.37469	1291.87268	-601.06012	590.54260	1307.32568	-638.83679	458.92004	1297.55261	-752.73328	306.56573	1348.68896	-862.07697	115.18690	1400.03955	-915.92609	106.18665	1350.68616	-741.37561	29.18828	1611.31775	-494.30231	604.53156	1580.23108	-456.31982	452.64392	1587.00415	-476.90295	277.15936	1536.24084	-464.49713	72.14803	1486.04651	-510.56390	33.66521	1535.35901	-322.36569	38.26321	1485.77612	-558.71118	1709.32874	-3102.04150	1973.06982	1023.72223	-3140.73169	2012.52576	1022.02051			 
